<?xml version="1.0" encoding="utf-8"?>
<!-- Generator: Adobe Illustrator 27.5.0, SVG Export Plug-In . SVG Version: 6.00 Build 0)  -->
<svg version="1.1" xmlns="http://www.w3.org/2000/svg" xmlns:xlink="http://www.w3.org/1999/xlink" x="0px" y="0px"
	 viewBox="0 0 750 500" style="enable-background:new 0 0 750 500;" xml:space="preserve">
<g id="Background_Simple">
	<g>
		<path style="fill:#92E3A9;" d="M596.588,74.717c-67.707-11.002-131.672,18.762-195.812,35.222
			c-81.421,20.895-160.512,4.43-241.369-9.468C115.611,92.943,77.13,113.714,48.7,146.787
			c-32.33,37.611-42.24,87.411-33.449,135.668c6.876,37.743,21.486,75.606,47.748,104.107
			c29.334,31.835,72.025,44.362,113.992,48.061c35.171,3.1,70.92,0.721,106.012-2.418c32.337-2.893,64.588-7.068,97.007-8.971
			c23.47-1.378,49.426-2.861,71.9,5.464c84.305,31.231,155.562,31.231,222.807-13.098c46.659-30.759,58.566-95.218,58.063-147.387
			c-0.487-50.497-15.246-103.777-47.458-143.329C661.108,95.15,630.157,80.172,596.588,74.717z"/>
		<path style="opacity:0.8;fill:#FFFFFF;" d="M596.588,74.717c-67.707-11.002-131.672,18.762-195.812,35.222
			c-81.421,20.895-160.512,4.43-241.369-9.468C115.611,92.943,77.13,113.714,48.7,146.787
			c-32.33,37.611-42.24,87.411-33.449,135.668c6.876,37.743,21.486,75.606,47.748,104.107
			c29.334,31.835,72.025,44.362,113.992,48.061c35.171,3.1,70.92,0.721,106.012-2.418c32.337-2.893,64.588-7.068,97.007-8.971
			c23.47-1.378,49.426-2.861,71.9,5.464c84.305,31.231,155.562,31.231,222.807-13.098c46.659-30.759,58.566-95.218,58.063-147.387
			c-0.487-50.497-15.246-103.777-47.458-143.329C661.108,95.15,630.157,80.172,596.588,74.717z"/>
	</g>
</g>
<g id="Floor">
	<line style="fill:#FFFFFF;stroke:#263238;stroke-miterlimit:10;" x1="46.149" y1="390.642" x2="717.699" y2="390.642"/>
</g>
<g id="Shopping_Cart_2">
	<g>
		<path style="fill:#FFFFFF;stroke:#263238;stroke-miterlimit:10;" d="M578.101,116.841c0-3.01,2.44-5.451,5.45-5.451
			s5.45,2.44,5.45,5.451c0,3.01-2.44,5.45-5.45,5.45S578.101,119.851,578.101,116.841z"/>
		<g>
			<path style="fill:#FFFFFF;stroke:#263238;stroke-miterlimit:10;" d="M563.488,244.844c0.485,0,0.905-0.352,0.985-0.837
				l20.726-125.122c0.053-0.316-0.05-0.639-0.275-0.867c-0.226-0.228-0.548-0.334-0.864-0.285L388.7,148.055
				c-0.268,0.042-0.509,0.191-0.665,0.414c-0.156,0.222-0.215,0.499-0.163,0.766l16.504,84.822c0.087,0.446,0.464,0.778,0.919,0.807
				l158.129,9.979C563.445,244.844,563.466,244.844,563.488,244.844z M582.999,119.922L562.648,242.79l-156.457-9.874
				l-16.158-83.044L582.999,119.922z"/>
		</g>
		<g>
			
				<line style="fill:none;stroke:#263238;stroke-linecap:round;stroke-linejoin:round;stroke-miterlimit:10;" x1="397.297" y1="149.427" x2="410.346" y2="234.249"/>
			
				<line style="fill:none;stroke:#263238;stroke-linecap:round;stroke-linejoin:round;stroke-miterlimit:10;" x1="405.503" y1="148.129" x2="416.981" y2="234.633"/>
			
				<line style="fill:none;stroke:#263238;stroke-linecap:round;stroke-linejoin:round;stroke-miterlimit:10;" x1="413.709" y1="146.832" x2="423.615" y2="235.017"/>
			
				<line style="fill:none;stroke:#263238;stroke-linecap:round;stroke-linejoin:round;stroke-miterlimit:10;" x1="421.915" y1="145.534" x2="430.25" y2="235.401"/>
			
				<line style="fill:none;stroke:#263238;stroke-linecap:round;stroke-linejoin:round;stroke-miterlimit:10;" x1="430.122" y1="144.236" x2="436.884" y2="235.785"/>
			
				<line style="fill:none;stroke:#263238;stroke-linecap:round;stroke-linejoin:round;stroke-miterlimit:10;" x1="438.328" y1="142.939" x2="443.519" y2="236.168"/>
			
				<line style="fill:none;stroke:#263238;stroke-linecap:round;stroke-linejoin:round;stroke-miterlimit:10;" x1="446.534" y1="141.641" x2="450.153" y2="236.552"/>
			
				<line style="fill:none;stroke:#263238;stroke-linecap:round;stroke-linejoin:round;stroke-miterlimit:10;" x1="454.74" y1="140.343" x2="456.788" y2="236.936"/>
			
				<line style="fill:none;stroke:#263238;stroke-linecap:round;stroke-linejoin:round;stroke-miterlimit:10;" x1="462.947" y1="139.046" x2="463.422" y2="237.32"/>
			
				<line style="fill:none;stroke:#263238;stroke-linecap:round;stroke-linejoin:round;stroke-miterlimit:10;" x1="471.153" y1="137.748" x2="470.056" y2="237.704"/>
			
				<line style="fill:none;stroke:#263238;stroke-linecap:round;stroke-linejoin:round;stroke-miterlimit:10;" x1="479.359" y1="136.451" x2="476.691" y2="238.087"/>
			
				<line style="fill:none;stroke:#263238;stroke-linecap:round;stroke-linejoin:round;stroke-miterlimit:10;" x1="487.565" y1="135.153" x2="483.325" y2="238.471"/>
			
				<line style="fill:none;stroke:#263238;stroke-linecap:round;stroke-linejoin:round;stroke-miterlimit:10;" x1="495.772" y1="133.855" x2="489.96" y2="238.855"/>
			
				<line style="fill:none;stroke:#263238;stroke-linecap:round;stroke-linejoin:round;stroke-miterlimit:10;" x1="503.978" y1="132.558" x2="496.594" y2="239.239"/>
			
				<line style="fill:none;stroke:#263238;stroke-linecap:round;stroke-linejoin:round;stroke-miterlimit:10;" x1="512.184" y1="131.26" x2="503.229" y2="239.623"/>
			
				<line style="fill:none;stroke:#263238;stroke-linecap:round;stroke-linejoin:round;stroke-miterlimit:10;" x1="520.391" y1="129.962" x2="509.863" y2="240.006"/>
			
				<line style="fill:none;stroke:#263238;stroke-linecap:round;stroke-linejoin:round;stroke-miterlimit:10;" x1="528.597" y1="128.665" x2="516.498" y2="240.39"/>
			
				<line style="fill:none;stroke:#263238;stroke-linecap:round;stroke-linejoin:round;stroke-miterlimit:10;" x1="536.803" y1="127.367" x2="523.132" y2="240.774"/>
			
				<line style="fill:none;stroke:#263238;stroke-linecap:round;stroke-linejoin:round;stroke-miterlimit:10;" x1="545.009" y1="126.069" x2="529.766" y2="241.158"/>
			
				<line style="fill:none;stroke:#263238;stroke-linecap:round;stroke-linejoin:round;stroke-miterlimit:10;" x1="553.216" y1="124.772" x2="536.401" y2="241.542"/>
			
				<line style="fill:none;stroke:#263238;stroke-linecap:round;stroke-linejoin:round;stroke-miterlimit:10;" x1="561.422" y1="123.474" x2="543.035" y2="241.926"/>
			
				<line style="fill:none;stroke:#263238;stroke-linecap:round;stroke-linejoin:round;stroke-miterlimit:10;" x1="569.628" y1="122.176" x2="549.67" y2="242.309"/>
		</g>
		<g>
			<path style="fill:#FFFFFF;stroke:#263238;stroke-miterlimit:10;" d="M385.78,151.811c0.104,0,0.21-0.008,0.316-0.025
				l217.621-34.543c1.091-0.173,1.835-1.198,1.662-2.289c-0.173-1.091-1.201-1.835-2.289-1.662l-217.621,34.543
				c-1.091,0.173-1.835,1.198-1.662,2.289C383.963,151.109,384.814,151.811,385.78,151.811z"/>
		</g>
		<g>
			<path style="fill:#FFFFFF;stroke:#263238;stroke-miterlimit:10;" d="M566.943,236.133c0.781,0,1.44-0.605,1.494-1.398
				c0.057-0.826-0.566-1.542-1.393-1.599l-167.725-11.515c-0.818-0.057-1.543,0.567-1.599,1.394
				c-0.057,0.826,0.566,1.543,1.394,1.599l167.725,11.514C566.873,236.133,566.908,236.133,566.943,236.133z"/>
		</g>
		<g>
			<path style="fill:#FFFFFF;stroke:#263238;stroke-miterlimit:10;" d="M395.376,193.914c0.021,0,0.043-0.001,0.065-0.002
				l178.856-7.676c0.827-0.036,1.47-0.735,1.435-1.563c-0.036-0.827-0.697-1.482-1.563-1.434l-178.856,7.676
				c-0.827,0.036-1.47,0.735-1.435,1.563C393.913,193.284,394.578,193.914,395.376,193.914z"/>
		</g>
		<g>
			<path style="fill:#FFFFFF;stroke:#263238;stroke-miterlimit:10;" d="M388.467,161.673c0.077,0,0.155-0.006,0.234-0.018
				l210.712-33.008c0.818-0.129,1.378-0.896,1.249-1.714c-0.127-0.818-0.891-1.376-1.714-1.25l-210.712,33.008
				c-0.818,0.128-1.378,0.895-1.25,1.714C387.103,161.145,387.742,161.673,388.467,161.673z"/>
		</g>
		<g>
			<path style="fill:#FFFFFF;stroke:#263238;stroke-miterlimit:10;" d="M507.806,234.562c0.702,0,1.383-0.369,1.748-1.025
				l73.471-131.692l36.536-16.897c1.002-0.464,1.439-1.652,0.976-2.655c-0.464-1.003-1.652-1.438-2.655-0.976l-37.126,17.17
				c-0.383,0.178-0.701,0.472-0.906,0.841l-73.788,132.26c-0.538,0.965-0.192,2.183,0.772,2.722
				C507.142,234.481,507.476,234.562,507.806,234.562z"/>
		</g>
		<g>
			<path style="fill:#FFFFFF;stroke:#263238;stroke-miterlimit:10;" d="M582.523,142.213c0.217,0,0.438-0.036,0.654-0.11
				l7.292-2.524c3.63-1.257,6.354-4.232,7.286-7.959l6.911-27.646l15.916-8.4c0.977-0.515,1.351-1.725,0.835-2.702
				c-0.515-0.977-1.724-1.351-2.702-0.835l-16.706,8.817c-0.503,0.265-0.869,0.732-1.007,1.284l-7.128,28.512
				c-0.602,2.411-2.365,4.336-4.714,5.149l-7.292,2.524c-1.044,0.361-1.597,1.501-1.235,2.544
				C580.919,141.694,581.694,142.213,582.523,142.213z"/>
		</g>
		<g>
			<path style="fill:#92E3A9;stroke:#263238;stroke-miterlimit:10;" d="M589.083,92.403l23.013,9.69l19.413-10.019
				c4.65-2.4,6.153-8.327,3.208-12.652l0,0c-2.395-3.518-6.981-4.792-10.848-3.014L589.083,92.403z"/>
			<path style="fill:#92E3A9;stroke:#263238;stroke-miterlimit:10;" d="M624.813,83.319c0-1.672,1.356-3.028,3.028-3.028
				c1.672,0,3.028,1.356,3.028,3.028s-1.356,3.028-3.028,3.028C626.169,86.347,624.813,84.991,624.813,83.319z"/>
		</g>
		<g>
			<path style="fill:#FFFFFF;stroke:#263238;stroke-miterlimit:10;" d="M528.176,352.927c1.104,0,2-0.896,2-2v-4.989
				c0-1.104-0.896-2-2-2s-2,0.896-2,2v4.989C526.176,352.032,527.072,352.927,528.176,352.927z"/>
		</g>
		<g>
			<path style="fill:#FFFFFF;stroke:#263238;stroke-miterlimit:10;" d="M436.495,352.927c1.104,0,2-0.896,2-2v-4.989
				c0-1.104-0.896-2-2-2s-2,0.896-2,2v4.989C434.495,352.032,435.391,352.927,436.495,352.927z"/>
		</g>
		<g>
			<path style="fill:#FFFFFF;stroke:#263238;stroke-miterlimit:10;" d="M417.779,354.293h209.295c1.104,0,2-0.896,2-2s-0.896-2-2-2
				H417.779c-1.104,0-2,0.896-2,2S416.674,354.293,417.779,354.293z"/>
		</g>
		<g>
			<path style="fill:#FFFFFF;stroke:#263238;stroke-miterlimit:10;" d="M417.779,347.767h119.609c0.416,0,0.821-0.13,1.16-0.371
				l24.042-17.113h66.145c1.104,0,2-0.896,2-2s-0.896-2-2-2h-66.783c-0.416,0-0.821,0.13-1.16,0.371l-24.042,17.113H417.779
				c-1.104,0-2,0.896-2,2S416.674,347.767,417.779,347.767z"/>
		</g>
		<g>
			
				<circle style="fill:#263238;stroke:#263238;stroke-linecap:round;stroke-linejoin:round;stroke-miterlimit:10;" cx="630.763" cy="379.19" r="11.453"/>
			
				<circle style="fill:#FFFFFF;stroke:#263238;stroke-linecap:round;stroke-linejoin:round;stroke-miterlimit:10;" cx="630.763" cy="379.19" r="7.022"/>
		</g>
		<g>
			
				<rect x="612.301" y="354.391" transform="matrix(-1 -1.224647e-16 1.224647e-16 -1 1236.8352 713.6759)" style="fill:#92E3A9;stroke:#263238;stroke-miterlimit:10;" width="12.234" height="4.893"/>
			<path style="fill:#92E3A9;stroke:#263238;stroke-miterlimit:10;" d="M624.534,359.285c0,0,1.78,0.223,3.559,2.002
				c0.018,0.018,0.036,0.036,0.053,0.054c2.197,2.219,3.654,5.065,4.33,8.113l2.384,10.751c0.321,1.853-1.105,3.548-2.986,3.548
				h-1.147c-2.395,0-4.715-0.835-6.56-2.362l-16.093-13.876v-3.778c0-2.18,1.586-4.036,3.739-4.376l0.487-0.077H624.534z"/>
			<circle style="fill:#92E3A9;stroke:#263238;stroke-miterlimit:10;" cx="630.763" cy="379.526" r="2.002"/>
		</g>
		<g>
			
				<circle style="fill:#263238;stroke:#263238;stroke-linecap:round;stroke-linejoin:round;stroke-miterlimit:10;" cx="448.59" cy="379.19" r="11.453"/>
			
				<circle style="fill:#FFFFFF;stroke:#263238;stroke-linecap:round;stroke-linejoin:round;stroke-miterlimit:10;" cx="448.59" cy="379.19" r="7.022"/>
		</g>
		<g>
			
				<rect x="430.128" y="354.391" transform="matrix(-1 -1.224647e-16 1.224647e-16 -1 872.4892 713.6759)" style="fill:#92E3A9;stroke:#263238;stroke-miterlimit:10;" width="12.234" height="4.893"/>
			<path style="fill:#92E3A9;stroke:#263238;stroke-miterlimit:10;" d="M442.361,359.285c0,0,1.78,0.223,3.559,2.002
				c0.018,0.018,0.035,0.036,0.053,0.054c2.197,2.219,3.654,5.065,4.33,8.113l2.384,10.751c0.321,1.853-1.105,3.548-2.986,3.548
				h-1.147c-2.395,0-4.715-0.835-6.56-2.362l-16.093-13.876v-3.778c0-2.18,1.586-4.036,3.739-4.376l0.487-0.077H442.361z"/>
			<circle style="fill:#92E3A9;stroke:#263238;stroke-miterlimit:10;" cx="448.59" cy="379.526" r="2.002"/>
		</g>
		<g>
			<path style="fill:#FFFFFF;stroke:#263238;stroke-miterlimit:10;" d="M579.275,355.684c1.104,0,2-0.896,2-2V326.41
				c0-4.468-1.681-8.725-4.732-11.986l-65.112-69.588c-2.128-2.274-2.22-5.787-0.213-8.17c1.306-1.55,3.289-2.356,5.305-2.161
				l33.04,3.225l72.503,76.895c1.94,2.059,3.009,4.751,3.009,7.579v31.017c0,1.104,0.896,2,2,2c1.104,0,2-0.896,2-2v-31.017
				c0-3.853-1.455-7.518-4.099-10.323l-73.018-77.441c-0.332-0.352-0.779-0.571-1.261-0.618l-33.786-3.297
				c-3.337-0.324-6.6,1.009-8.753,3.565c-3.311,3.933-3.159,9.728,0.353,13.48l65.111,69.588c2.356,2.518,3.653,5.805,3.653,9.254
				v27.274C577.275,354.789,578.17,355.684,579.275,355.684z"/>
		</g>
	</g>
</g>
<g id="Shopping_Cart_1">
	<g>
		<g>
			<path style="fill:#92E3A9;stroke:#263238;stroke-miterlimit:10;" d="M93.879,125.25l8.213,107.024l196.368,27.51l34.346-130.859
				L93.879,125.25z M314.658,145.447l-6.06-3.498v-2.822l7.693,0.095L314.658,145.447z M291.485,233.739l-4.379-2.528v-6.697
				l5.798-3.348l1.634,0.943L291.485,233.739z M265.471,244.773l-1.535-0.886v-6.697l5.798-3.349l5.799,3.349v6.697l-3.137,1.811
				L265.471,244.773z M164.482,231.288l-0.218-0.126v-6.629l5.857-3.381l5.74,3.314v6.695l-2.314,1.336L164.482,231.288z
				 M149.155,229.241v-4.727l5.799-3.348l5.798,3.348v6.276L149.155,229.241z M133.505,227.151v-2.686l5.799-3.349l5.798,3.349
				v4.235L133.505,227.151z M117.898,184.14l3.729,2.154v6.697l-2.92,1.687L117.898,184.14z M136.539,137.001v5.352l-5.585,3.225
				l-6.012-3.47v-5.251L136.539,137.001z M289.91,160.846v6.696l-5.695,3.289l-5.902-3.407v-6.577l5.799-3.349L289.91,160.846z
				 M286.138,154.867v-6.697l5.798-3.347l5.799,3.347v6.697l-5.799,3.349L286.138,154.867z M141.331,186.391l5.694-3.289
				l5.903,3.407v6.578l-5.799,3.347l-5.798-3.347V186.391z M139.304,183.712l-5.799-3.348v-6.695l5.696-3.289l5.901,3.407v6.577
				L139.304,183.712z M148.188,180.147v-6.577l5.799-3.348l5.798,3.348v6.697l-5.695,3.288L148.188,180.147z M156.013,186.293
				l5.799-3.349l5.798,3.349v6.697l-5.694,3.288l-5.904-3.408V186.293z M163.839,180.314v-6.696l5.798-3.349l5.799,3.349v6.696
				l-5.799,3.349L163.839,180.314z M171.663,186.342l5.8-3.348l5.798,3.348v6.697l-5.798,3.349l-5.8-3.349V186.342z
				 M179.489,180.363v-6.695l5.695-3.289l5.902,3.408v6.576l-5.799,3.348L179.489,180.363z M187.314,186.391l5.694-3.289
				l5.903,3.407v6.578l-5.799,3.347l-5.798-3.347V186.391z M194.171,180.147v-6.577l5.799-3.348l5.798,3.348v6.697l-5.695,3.288
				L194.171,180.147z M195.138,199.115l5.696-3.288l5.901,3.407v6.577l-5.798,3.349l-5.799-3.349V199.115z M201.997,192.872v-6.578
				l5.798-3.349l5.799,3.349v6.697l-5.695,3.288L201.997,192.872z M209.822,180.314v-6.696l5.798-3.349l5.799,3.349v6.696
				l-5.799,3.349L209.822,180.314z M209.822,199.018l5.798-3.349l5.799,3.349v6.695l-5.696,3.289l-5.902-3.407V199.018z
				 M217.646,193.039v-6.697l5.799-3.348l5.798,3.348v6.697l-5.798,3.349L217.646,193.039z M225.472,180.363v-6.695l5.695-3.289
				l5.902,3.408v6.576l-5.799,3.348L225.472,180.363z M225.472,199.066l5.798-3.347l5.799,3.347v6.697l-5.799,3.348l-5.798-3.348
				V199.066z M233.297,193.088v-6.697l5.695-3.288l5.903,3.407v6.578l-5.798,3.347L233.297,193.088z M240.154,180.146v-6.576
				l5.799-3.348l5.798,3.348v6.697l-5.695,3.288L240.154,180.146z M241.121,199.115l5.696-3.288l5.902,3.408v6.576l-5.799,3.349
				l-5.799-3.349V199.115z M247.98,192.872v-6.578l5.798-3.349l5.799,3.349v6.697l-5.695,3.288L247.98,192.872z M255.805,180.314
				v-6.696l5.799-3.349l5.798,3.349v6.696l-5.798,3.349L255.805,180.314z M255.805,199.018l5.799-3.349l5.798,3.349v6.695
				l-5.695,3.289l-5.902-3.408V199.018z M263.629,193.039v-6.697l5.799-3.348l5.799,3.348v6.697l-5.799,3.349L263.629,193.039z
				 M271.455,180.363v-6.695l5.695-3.289l5.902,3.408v6.577l-5.799,3.348L271.455,180.363z M271.455,199.066l5.798-3.347
				l5.799,3.347v6.697l-5.799,3.348l-5.798-3.348V199.066z M279.28,193.088v-6.697l5.695-3.288l5.902,3.407v6.578l-5.798,3.347
				L279.28,193.088z M282.078,155.078l-5.468,3.156l-6.13-3.539v-6.315l5.799-3.348l5.798,3.348V155.078z M275.228,161.325v6.314
				l-5.799,3.349l-5.799-3.349v-6.695l5.468-3.157L275.228,161.325z M267.402,154.916l-5.798,3.348l-5.799-3.348v-6.697l5.469-3.156
				l6.128,3.538V154.916z M259.577,160.895v6.695l-5.799,3.348l-5.798-3.348v-6.695l5.798-3.348L259.577,160.895z M251.751,154.867
				l-5.798,3.349l-5.799-3.349v-6.697l5.799-3.347l5.798,3.347V154.867z M243.927,160.846v6.696l-5.696,3.289l-5.902-3.407v-6.341
				l6.004-3.465L243.927,160.846z M236.656,154.84l-5.954,3.438l-5.643-3.258v-6.639l5.798-3.348l5.799,3.348V154.84z
				 M229.244,161.001v6.638l-5.798,3.349l-5.799-3.349v-6.695l5.748-3.319L229.244,161.001z M221.419,154.916l-5.799,3.348
				l-5.798-3.348v-6.697l5.749-3.319l5.849,3.377V154.916z M213.594,160.895v6.695l-5.799,3.348l-5.798-3.348v-6.695l5.798-3.348
				L213.594,160.895z M205.768,154.867l-5.798,3.349l-5.799-3.349v-6.697l5.799-3.347l5.798,3.347V154.867z M197.944,160.846v6.696
				l-5.696,3.289l-5.902-3.407v-6.339l6.006-3.466L197.944,160.846z M190.677,154.838l-5.958,3.44l-5.639-3.256v-6.641l5.798-3.348
				l5.799,3.348V154.838z M183.261,160.999v6.641l-5.798,3.349l-5.8-3.349v-6.695l5.751-3.32L183.261,160.999z M175.436,154.916
				l-5.799,3.348l-5.798-3.348v-6.697l5.75-3.32l5.847,3.376V154.916z M167.61,160.895v6.695l-5.798,3.348l-5.799-3.348v-6.695
				l5.799-3.348L167.61,160.895z M159.786,154.867l-5.798,3.349l-5.799-3.349v-6.697l5.799-3.347l5.798,3.347V154.867z
				 M151.961,160.846v6.696l-5.696,3.289l-5.901-3.407v-6.529l5.841-3.372L151.961,160.846z M144.363,155.029l-5.628,3.249
				l-5.97-3.447v-6.45l5.799-3.348l5.798,3.348V155.029z M137.278,161.189v6.451l-5.798,3.349l-5.799-3.349v-6.695l5.585-3.225
				L137.278,161.189z M137.278,186.342v6.697l-5.798,3.349l-5.799-3.349v-6.697l5.799-3.348L137.278,186.342z M133.505,199.066
				l5.799-3.347l5.798,3.347v6.697l-5.798,3.348l-5.799-3.348V199.066z M141.331,211.79l5.798-3.349l5.799,3.349v6.695l-5.799,3.348
				l-5.798-3.348V211.79z M149.155,205.811v-6.697l5.696-3.287l5.902,3.407v6.577l-5.798,3.349L149.155,205.811z M156.981,211.839
				l5.695-3.289l5.902,3.408v6.509l-5.858,3.382l-5.74-3.315V211.839z M163.839,205.595v-6.577l5.798-3.349l5.799,3.349v6.695
				l-5.696,3.289L163.839,205.595z M171.663,211.741l5.8-3.348l5.798,3.348v6.696l-5.798,3.349l-5.8-3.349V211.741z
				 M179.489,205.762v-6.697l5.798-3.347l5.799,3.347v6.697l-5.799,3.348L179.489,205.762z M187.314,211.79l5.798-3.349l5.799,3.349
				v6.695l-5.799,3.348l-5.798-3.348V211.79z M195.138,224.514l5.799-3.348l5.798,3.348v6.697l-5.798,3.347l-5.799-3.347V224.514z
				 M202.964,218.535v-6.695l5.695-3.289l5.903,3.408v6.475l-5.888,3.4L202.964,218.535z M210.188,224.568l5.887-3.398l5.711,3.297
				v6.695l-5.8,3.349l-5.798-3.349V224.568z M217.646,218.437v-6.696l5.799-3.348l5.798,3.348v6.696l-5.798,3.349L217.646,218.437z
				 M225.472,224.465l5.798-3.349l5.799,3.349v6.697l-5.799,3.347l-5.798-3.347V224.465z M233.297,218.486v-6.695l5.799-3.349
				l5.798,3.349v6.695l-5.798,3.348L233.297,218.486z M241.121,224.514l5.799-3.348l5.799,3.348v6.697l-5.799,3.347l-5.799-3.347
				V224.514z M248.947,218.535v-6.695l5.695-3.289l5.902,3.408v6.441l-5.917,3.417L248.947,218.535z M256.112,224.602l5.917-3.416
				l5.681,3.28v6.695l-5.799,3.349l-5.798-3.349V224.602z M263.629,218.437v-6.696l5.799-3.348l5.799,3.348v6.696l-5.799,3.349
				L263.629,218.437z M271.455,224.465l5.798-3.349l5.799,3.349v6.697l-5.799,3.347l-5.798-3.347V224.465z M279.28,218.486v-6.695
				l5.799-3.349l5.798,3.349v6.695l-5.798,3.348L279.28,218.486z M287.106,205.811v-6.697l5.695-3.288l5.903,3.408v6.576
				l-5.799,3.349L287.106,205.811z M292.039,183.554l-5.901-3.407v-6.577l5.798-3.348l5.799,3.348v6.697L292.039,183.554z
				 M293.963,167.591v-6.695l5.798-3.348l5.799,3.348v6.695l-5.799,3.348L293.963,167.591z M293.963,142.193v-3.247l11.597,0.143
				v3.104l-5.799,3.347L293.963,142.193z M289.91,142.144l-5.798,3.347l-5.799-3.347v-3.391l11.597,0.143V142.144z M274.253,142.353
				l-5.468,3.157l-6.129-3.538v-3.413l11.597,0.143V142.353z M259.577,142.193l-5.799,3.347l-5.798-3.347v-3.815l11.597,0.143
				V142.193z M243.927,142.144l-5.799,3.347l-5.798-3.347v-3.959l11.597,0.143V142.144z M228.831,142.353l-5.749,3.319l-5.849-3.376
				v-4.299l11.597,0.143V142.353z M213.594,142.193l-5.799,3.347l-5.798-3.347v-4.383l11.597,0.143V142.193z M197.944,142.144
				l-5.799,3.347l-5.798-3.347v-4.528l11.597,0.143V142.144z M182.851,142.353l-5.749,3.32l-5.848-3.375v-4.868l11.597,0.143
				V142.353z M167.61,142.193l-5.798,3.347l-5.799-3.347v-4.951l11.597,0.143V142.193z M151.961,142.144l-5.799,3.347l-5.798-3.347
				v-5.096l11.597,0.143V142.144z M129.453,148.466v6.45l-5.799,3.348l-5.798-3.348v-6.697l5.586-3.224L129.453,148.466z
				 M129.453,173.619v6.696l-5.799,3.349l-5.798-3.349v-6.696l5.798-3.349L129.453,173.619z M118.99,198.363l4.664-2.694
				l5.799,3.349v6.695l-5.799,3.348l-4.021-2.322L118.99,198.363z M125.68,211.741l5.799-3.348l5.798,3.348v6.696l-5.798,3.349
				l-5.799-3.349V211.741z M184.289,233.932l-4.799-2.771v-6.697l5.798-3.349l5.799,3.349v6.697l-5.176,2.987L184.289,233.932z
				 M193.112,233.841l2.861,1.651l-4.647-0.621L193.112,233.841z M208.762,233.89l5.799,3.347v0.738l-10.456-1.396L208.762,233.89z
				 M218.013,237.19l5.799-3.349l5.798,3.349v2.794l-11.597-1.549V237.19z M233.297,237.188l5.799-3.347l5.798,3.347v4.837
				l-11.597-1.549V237.188z M248.947,242.566v-5.329l5.798-3.347l5.799,3.347v6.697l-0.254,0.147L248.947,242.566z M288.454,245.285
				l-3.375,1.949l-5.799-3.348v-6.697l5.799-3.347l5.539,3.198L288.454,245.285z M294.93,218.535v-6.695l2.713-1.567l-2.24,8.535
				L294.93,218.535z M299.866,196.278l-5.903-3.407v-6.578l5.798-3.349l4.39,2.535l-2.575,9.811L299.866,196.278z M305.017,182.179
				l-3.23-1.865v-6.696l5.799-3.349l0.483,0.279L305.017,182.179z M311.956,155.741l-4.369,2.523l-5.799-3.348v-6.697l5.799-3.347
				l5.798,3.347v2.079L311.956,155.741z M310.765,160.279l-1.152,4.388v-3.723L310.765,160.279z M121.627,136.817v5.376l-5.34,3.083
				v12.536l5.34,3.084v6.695l-4.787,2.764l-2.581-33.63L121.627,136.817z M119.914,210.41l2.728,1.575v8.206l7.825,4.517v2.038
				l-9.395-1.255L119.914,210.41z"/>
			<path style="fill:#92E3A9;stroke:#263238;stroke-miterlimit:10;" d="M117.711,137.417H93.912c-1.012,0-1.85-0.785-1.916-1.795
				l-0.605-9.288c-0.076-1.162,0.847-2.146,2.011-2.146h24.309V137.417z"/>
			<polygon style="fill:none;stroke:#263238;stroke-miterlimit:10;" points="111.852,154.11 99.308,154.11 98.812,146.927 
				111.463,146.927 			"/>
			<polygon style="fill:none;stroke:#263238;stroke-miterlimit:10;" points="113.411,175.934 100.867,175.934 100.371,168.751 
				113.022,168.751 			"/>
			<polygon style="fill:none;stroke:#263238;stroke-miterlimit:10;" points="114.97,197.758 102.426,197.758 101.93,190.576 
				114.581,190.576 			"/>
			<polygon style="fill:none;stroke:#263238;stroke-miterlimit:10;" points="116.529,219.582 103.985,219.582 103.489,212.4 
				116.14,212.4 			"/>
		</g>
		
			<ellipse transform="matrix(0.7071 -0.7071 0.7071 0.7071 42.32 295.3263)" style="fill:#92E3A9;stroke:#263238;stroke-miterlimit:10;" cx="377.65" cy="96.578" rx="8.087" ry="8.087"/>
		<g>
			<path style="fill:#FFFFFF;stroke:#263238;stroke-miterlimit:10;" d="M244.076,337.833h-28.161c-2.098,0-3.798-1.7-3.798-3.798
				c0-2.098,1.7-3.798,3.798-3.798h28.161c4.673,0,8.474-3.801,8.474-8.474v-4.009c0-1.577-0.437-3.114-1.265-4.455l-43.591-60.107
				c-1.231-1.698-0.853-4.073,0.845-5.305c1.699-1.23,4.073-0.852,5.305,0.845l43.666,60.211c0.046,0.064,0.09,0.128,0.131,0.194
				c1.639,2.581,2.505,5.561,2.505,8.617v4.009C260.147,330.624,252.938,337.833,244.076,337.833z"/>
		</g>
		<g>
			<path style="fill:#263238;stroke:#263238;stroke-miterlimit:10;" d="M215.112,263.334l9.935,0.846l-11.203-15.448
				c-1.231-1.697-3.606-2.075-5.305-0.845c-1.698,1.231-2.076,3.607-0.845,5.305L215.112,263.334z"/>
		</g>
		<g>
			<path style="fill:#FFFFFF;stroke:#263238;stroke-miterlimit:10;" d="M298.256,265.788c-0.309,0-0.624-0.038-0.937-0.117
				c-2.033-0.516-3.263-2.582-2.748-4.616l37.493-147.767c0.293-1.154,1.111-2.104,2.208-2.567l41.905-17.644
				c1.93-0.814,4.159,0.094,4.973,2.027c0.814,1.933-0.094,4.16-2.027,4.975l-40.161,16.91l-37.028,145.934
				C301.499,264.643,299.953,265.788,298.256,265.788z"/>
		</g>
		<g>
			<path style="fill:#FFFFFF;stroke:#263238;stroke-miterlimit:10;" d="M121.078,351.067c-1.59,0-3.072-1.007-3.602-2.599
				c-0.663-1.99,0.412-4.141,2.402-4.804l19.85-6.615c0.387-0.129,0.793-0.194,1.201-0.194h189.549v-31.469
				c0-2.172-0.619-4.289-1.79-6.118l-17.342-27.096c-1.807-2.823-4.748-4.695-8.071-5.134l-93.005-12.31
				c-2.079-0.275-3.542-2.185-3.267-4.264c0.275-2.079,2.185-3.541,4.264-3.267l93.004,12.31c5.546,0.734,10.457,3.857,13.473,8.57
				l17.341,27.096c1.955,3.055,2.989,6.586,2.989,10.213v35.267c0,2.098-1.7,3.798-3.798,3.798h-192.73l-19.265,6.421
				C121.882,351.003,121.477,351.067,121.078,351.067z"/>
		</g>
		<g>
			<rect x="316.976" y="344.676" style="fill:#92E3A9;stroke:#263238;stroke-miterlimit:10;" width="19.334" height="3.491"/>
			<g>
				
					<ellipse transform="matrix(0.9869 -0.1612 0.1612 0.9869 -55.3847 59.3041)" style="fill:#263238;stroke:#263238;stroke-linecap:round;stroke-linejoin:round;stroke-miterlimit:10;" cx="337.874" cy="371.058" rx="19.584" ry="19.584"/>
				
					<ellipse transform="matrix(0.3799 -0.925 0.925 0.3799 -133.7229 542.6379)" style="fill:#FFFFFF;stroke:#263238;stroke-linecap:round;stroke-linejoin:round;stroke-miterlimit:10;" cx="337.874" cy="371.058" rx="12.008" ry="12.008"/>
			</g>
			<path style="fill:#92E3A9;stroke:#263238;stroke-miterlimit:10;" d="M338.807,348.205h-21.831v5.601
				c0,0,10.741,6.445,12.889,12.083c2.148,5.639,3.222,11.278,8.593,10.741c5.37-0.537,4.565-4.028,3.491-8.861
				C340.997,363.49,339.206,352.452,338.807,348.205z"/>
			<circle style="fill:#92E3A9;stroke:#263238;stroke-miterlimit:10;" cx="337.874" cy="371.058" r="2.632"/>
		</g>
		<g>
			<rect x="142.008" y="344.676" style="fill:#92E3A9;stroke:#263238;stroke-miterlimit:10;" width="19.334" height="3.491"/>
			<g>
				
					<ellipse transform="matrix(0.9871 -0.1602 0.1602 0.9871 -57.3335 30.886)" style="fill:#263238;stroke:#263238;stroke-linecap:round;stroke-linejoin:round;stroke-miterlimit:10;" cx="162.906" cy="371.058" rx="19.584" ry="19.584"/>
				
					<ellipse transform="matrix(0.9732 -0.2298 0.2298 0.9732 -80.8941 47.3545)" style="fill:#FFFFFF;stroke:#263238;stroke-linecap:round;stroke-linejoin:round;stroke-miterlimit:10;" cx="162.906" cy="371.058" rx="12.008" ry="12.008"/>
			</g>
			<path style="fill:#92E3A9;stroke:#263238;stroke-miterlimit:10;" d="M163.839,348.205h-21.831v5.601
				c0,0,10.741,6.445,12.889,12.083c2.148,5.639,3.222,11.278,8.593,10.741c5.37-0.537,4.565-4.028,3.491-8.861
				C166.029,363.49,164.238,352.452,163.839,348.205z"/>
			<circle style="fill:#92E3A9;stroke:#263238;stroke-miterlimit:10;" cx="162.906" cy="371.058" r="2.632"/>
		</g>
	</g>
</g>
</svg>
